<svg xmlns="http://www.w3.org/2000/svg" fill="none" viewBox="0 0 128 128">
  <path d="M50.4 78.5a75.1 75.1 0 0 0-28.5 6.9c24.2-65.1 44.7-40.5 58.5-58.7 5.7-7.5 6.7-13.4 6.7-13.4s-4.8 7.2-12.5 10.5c-9.3 4-15.3 2.4-21.6 0-7.9-3-12.5-7.5-26.6 0C11.2 31 5.4 40.7 5.4 40.7s6.1-4.3 14.1-1.4c11.3 4.1 19.5 16.9 30.9 38.2z" fill="#F8C55B"/>
  <path d="M68.4 78.5a75.1 75.1 0 0 1 28.5 6.9C72.7 20.3 52.2 44.9 38.4 26.7c-5.7-7.5-6.7-13.4-6.7-13.4s4.8 7.2 12.5 10.5c9.3 4 15.3 2.4 21.6 0 7.9-3 12.5-7.5 26.6 0 15.2 7.6 21 17.3 21 17.3s-6.1-4.3-14.1-1.4c-11.3 4.1-19.5 16.9-30.9 38.2z" fill="#4F71A6"/>
</svg>
